<svg width="2927" height="853" viewBox="0 0 2927 853" fill="none" xmlns="http://www.w3.org/2000/svg">
<path d="M2456.25 490.162C2464.34 340.764 2583.57 211.418 2737.75 207.347C2777.86 206.289 2822.56 216.954 2851.81 246.227C2871.17 265.384 2881.99 291.537 2881.82 318.77C2881.33 389.036 2818.87 433.914 2759.34 456.456C2702.88 477.834 2650.12 482.388 2590.51 481.808C2589.23 618.51 2854.66 502.534 2913.17 471.296C2917.47 503.222 2922.08 535.105 2927 566.942C2811.57 643.352 2572.78 707.224 2474.78 574.023C2433.08 594.789 2390.73 614.208 2347.78 632.254C2327.08 641.192 2305.07 649.591 2284.04 657.943C2260.96 635.346 2226.38 595.316 2212.37 566.81C2183.37 599.389 2137.44 627.985 2097.39 643.512C2074.07 652.554 2049.07 660.836 2024.94 650.027C1997.67 637.815 1945.08 602.777 1934.38 574.13C1922.34 541.88 1990.2 357.238 2008.43 316.632C1977.5 323.176 1935.18 329.852 1903.8 333.903C1850.09 447.941 1802.24 565.666 1746.78 679.007C1719.15 735.449 1691.99 785.739 1646.44 829.918C1583.98 814.587 1505.78 786.606 1445.23 765.938C1457.68 732.876 1470.32 699.887 1483.17 666.976C1610.99 722.351 1594.51 702.667 1647.9 594.002L1570.32 594.27C1552.96 544.183 1536.85 488.757 1520.99 437.9C1498.14 365.734 1475.68 293.444 1453.6 221.036L1594.06 221.192C1604.31 249.353 1614.95 287.283 1624.18 316.906C1643.81 380.741 1663.88 444.444 1684.38 508.007C1695.77 473.614 1726.48 406.375 1741.64 372.019C1763.53 322.379 1788.23 258.652 1811.64 210.872C1846.09 216.929 1893.85 230.725 1925.33 236.057C1956.99 241.42 2041.17 217.037 2075.04 207.767C2090.88 210.762 2146.06 251.283 2163.31 262.081C2162.86 263.176 2162.43 264.275 2161.99 265.374C2131.72 342.432 2104.35 425.657 2078.01 504.141C2064.46 544.548 2094.27 547.888 2124.5 532.513C2167.9 510.445 2206.01 477.836 2234.4 438.02C2243.55 424.769 2255.35 384.008 2261.36 366.993L2312.62 221.17C2358.37 220.81 2404.12 220.837 2449.87 221.251C2417.04 316.92 2378.9 413.944 2349.42 510.789C2348.07 515.241 2351.1 519.593 2353.6 522.857C2370.12 527.535 2437.24 497.924 2456.25 490.162ZM2607.24 409.353C2618.76 408.84 2630.16 408.239 2641.61 406.809C2677.79 399.683 2723.54 387.979 2745.53 355.435C2751.48 346.644 2755.84 335.3 2753.52 324.583C2752.16 318.306 2748.47 312.979 2742.99 309.61C2735.79 305.181 2726.73 304.704 2718.48 305.021C2682.99 310.481 2654.42 333.908 2633.65 362.332C2622.96 376.976 2614.84 392.946 2607.24 409.353Z" fill="black"/>
<path d="M1249.53 201.716C1307.56 197.743 1371.63 217.769 1400.44 271.653C1419 306.363 1417.13 337.001 1411.16 374.288C1370.25 385.342 1318.7 394.535 1275.49 404.79C1288.79 363.673 1288.39 337.043 1279.62 321.942C1270.74 306.652 1253.43 303.372 1233.71 308.624C1213.97 313.878 1191.65 327.691 1172.43 346.852C1153.2 366.017 1137.04 390.568 1129.65 417.339C1113.95 474.171 1118.8 509.721 1136.68 530.215C1154.56 550.701 1185.28 555.948 1220.83 552.607C1291.65 545.952 1382.28 505.16 1431.11 481.075C1434.32 513.299 1439.28 552.588 1444.41 584.349C1389.73 618.893 1312.45 653.117 1235.57 665.192C1158.56 677.289 1082.05 667.148 1029 612.981C1023.15 607.006 1016.27 597.689 1011.07 590.909L1010.81 590.58L1010.44 590.767C924.197 634.428 876.577 652.766 784.382 682.73C759.75 654.798 733.868 626.088 719.059 591.959L718.738 591.219L718.218 591.836C713.725 597.161 709.573 601.477 704.726 606.445C679.248 631.962 653.806 647.481 621.222 662.427L618.047 663.873C549.469 694.821 468.716 658.377 441.373 589.295C430.926 562.879 429.187 531.236 433.02 499.764C436.852 468.298 446.251 437.041 458.04 411.422V411.421C497.224 326.214 569.412 251.586 658.416 218.799H658.417C674.51 212.855 695.449 207.259 716.405 205.098C737.373 202.937 758.296 204.222 774.405 211.98C800.566 224.581 811.135 244.181 820.533 269.957L821.047 271.368L821.481 269.929C828.548 246.508 837.475 224.846 846.464 202.131L980.281 218.743C972.005 237.901 941.721 310.735 913.383 381.972C899.059 417.983 885.23 453.589 874.991 481.651C869.872 495.681 865.648 507.83 862.709 517.203C861.239 521.889 860.088 525.886 859.307 529.081C858.53 532.261 858.106 534.689 858.116 536.213L858.117 536.322L858.164 536.422C858.844 537.865 859.523 539.633 860.464 541.044C861.422 542.482 862.716 543.655 864.685 543.871C871.361 544.601 880.646 543.137 891.106 540.417C901.582 537.693 913.293 533.693 924.846 529.31C947.952 520.545 970.47 510.229 981.262 505.48L981.589 505.337L981.559 504.982L981.502 504.278C976.606 430.096 1001.36 357 1050.33 301.063L1050.33 301.062C1103.53 240.019 1169.2 207.162 1249.53 201.716ZM762.692 317.083C753.26 313.962 742.889 313.497 727.528 314.398L727.492 314.4L727.458 314.407C691.442 321.712 660.072 343.1 635.14 370.308C610.208 397.517 591.69 430.574 581.381 461.274C571.082 491.946 568.941 520.38 576.921 538.282C580.922 547.26 587.478 553.601 596.814 556.208C606.129 558.809 618.141 557.673 633.039 551.861L633.05 551.856L633.063 551.851C659.912 539.723 687.361 518.654 710.644 493.648C733.563 469.033 752.472 440.576 762.797 413.028L763.283 411.717C772.338 386.955 781.819 360.132 792.252 336.135L792.402 335.79L792.113 335.551C780.57 325.964 772.124 320.203 762.692 317.083Z" fill="black" stroke="black"/>
<path d="M328.237 207.958C361.553 220.528 414.494 249.081 449.94 265.32L349.25 526.408L303.269 647.09C269.23 736.167 250.975 782.831 184.646 852.734C165.212 846.466 145.797 840.102 126.419 833.636C83.9371 820.175 41.7784 805.673 0 790.143C12.6267 757.294 26.4514 723.908 39.4585 691.078C58.1893 698.264 107.403 717.533 125.849 709.242C135.775 704.775 152.091 671.887 156.465 661.211C179.36 605.45 200.582 547.183 221.538 490.631C256.528 396.191 292.087 301.964 328.237 207.958Z" fill="black"/>
<path d="M401.773 1.18532C448.514 -6.64362 492.67 25.142 500.086 71.9502C507.483 118.757 475.308 162.626 428.433 169.614C382.148 176.515 338.962 144.827 331.641 98.6102C324.339 52.3933 355.621 8.91556 401.773 1.18532Z" fill="black"/>
<path d="M1522.24 433.568C1500.94 445.738 1409.41 491.25 1365.36 510.583C1375.5 542.277 1417.97 599.359 1444.27 584.746C1504.18 551.468 1526.99 540.058 1550.77 520.091L1564.08 534.353L1542.21 437.371C1545.06 432.3 1543.54 421.397 1522.24 433.568Z" fill="black"/>
</svg>
