<svg width="3088" height="853" viewBox="0 0 3088 853" fill="none" xmlns="http://www.w3.org/2000/svg">
<path d="M2617.02 490.162C2625.11 340.764 2744.34 211.418 2898.52 207.347C2938.63 206.289 2983.34 216.954 3012.59 246.227C3031.95 265.384 3042.76 291.537 3042.59 318.77C3042.1 389.036 2979.65 433.914 2920.12 456.456C2863.66 477.834 2810.9 482.388 2751.29 481.808C2750 618.51 3015.43 502.534 3073.94 471.296C3078.24 503.222 3082.85 535.105 3087.77 566.942C2972.34 643.352 2733.55 707.224 2635.55 574.023C2593.85 594.789 2551.5 614.208 2508.56 632.254C2487.85 641.192 2465.85 649.591 2444.81 657.943C2421.74 635.346 2387.16 595.316 2373.15 566.81C2344.15 599.389 2298.21 627.985 2258.17 643.512C2234.85 652.554 2209.84 660.836 2185.71 650.027C2158.44 637.815 2105.85 602.777 2095.16 574.13C2083.11 541.88 2150.98 357.238 2169.2 316.632C2138.27 323.176 2095.96 329.852 2064.57 333.903C2010.86 447.941 1963.01 565.666 1907.55 679.007C1879.93 735.449 1852.76 785.739 1807.21 829.918C1744.76 814.587 1666.55 786.606 1606 765.938C1618.45 732.876 1631.1 699.887 1643.94 666.976C1771.77 722.351 1755.28 702.667 1808.67 594.002L1731.1 594.27C1713.73 544.183 1697.63 488.757 1681.77 437.9C1658.91 365.734 1636.45 293.444 1614.38 221.036L1754.83 221.192C1765.08 249.353 1775.72 287.283 1784.95 316.906C1804.59 380.741 1824.66 444.444 1845.16 508.007C1856.55 473.614 1887.26 406.375 1902.41 372.019C1924.31 322.379 1949.01 258.652 1972.41 210.872C2006.86 216.929 2054.63 230.725 2086.11 236.057C2117.77 241.42 2201.95 217.037 2235.81 207.767C2251.65 210.762 2306.83 251.283 2324.08 262.081C2323.64 263.176 2323.2 264.275 2322.77 265.374C2292.49 342.432 2265.12 425.657 2238.79 504.141C2225.23 544.548 2255.04 547.888 2285.28 532.513C2328.67 510.445 2366.79 477.836 2395.18 438.02C2404.32 424.769 2416.13 384.008 2422.13 366.993L2473.39 221.17C2519.14 220.81 2564.89 220.837 2610.64 221.251C2577.82 316.92 2539.68 413.944 2510.2 510.789C2508.84 515.241 2511.88 519.593 2514.37 522.857C2530.9 527.535 2598.02 497.924 2617.02 490.162ZM2768.02 409.353C2779.53 408.84 2790.94 408.239 2802.38 406.809C2838.57 399.683 2884.31 387.979 2906.31 355.435C2912.25 346.644 2916.62 335.3 2914.3 324.583C2912.94 318.306 2909.24 312.979 2903.76 309.61C2896.56 305.181 2887.51 304.704 2879.26 305.021C2843.76 310.481 2815.19 333.908 2794.43 362.332C2783.73 376.976 2775.62 392.946 2768.02 409.353Z" fill="black"/>
<path d="M1249.53 201.716C1307.56 197.743 1371.63 217.769 1400.44 271.653C1419 306.363 1417.13 337.001 1411.16 374.288C1370.25 385.342 1318.7 394.535 1275.49 404.79C1288.79 363.673 1288.39 337.043 1279.62 321.942C1270.74 306.652 1253.43 303.372 1233.71 308.624C1213.97 313.878 1191.65 327.691 1172.43 346.852C1153.2 366.017 1137.04 390.568 1129.65 417.339C1113.95 474.171 1118.8 509.721 1136.68 530.215C1154.56 550.701 1185.28 555.948 1220.83 552.607C1291.65 545.952 1382.28 505.16 1431.11 481.075C1434.32 513.299 1439.28 552.588 1444.41 584.349C1389.73 618.893 1312.45 653.117 1235.57 665.192C1158.56 677.289 1082.05 667.148 1029 612.981C1023.15 607.006 1016.27 597.689 1011.07 590.909L1010.81 590.58L1010.44 590.767C924.197 634.428 876.577 652.766 784.382 682.73C759.75 654.798 733.867 626.088 719.059 591.959L718.738 591.219L718.218 591.836C713.725 597.161 709.573 601.477 704.726 606.445C679.248 631.962 653.806 647.481 621.222 662.427L618.047 663.873C549.469 694.821 468.716 658.377 441.373 589.295C430.926 562.879 429.187 531.236 433.02 499.764C436.852 468.298 446.251 437.041 458.04 411.422V411.421C497.224 326.214 569.412 251.586 658.416 218.799H658.417C674.51 212.855 695.449 207.259 716.405 205.098C737.373 202.937 758.296 204.222 774.405 211.98C800.566 224.581 811.135 244.181 820.533 269.957L821.047 271.368L821.481 269.929C828.548 246.508 837.475 224.846 846.464 202.131L980.281 218.743C972.005 237.901 941.721 310.735 913.383 381.972C899.059 417.983 885.23 453.589 874.991 481.651C869.872 495.681 865.648 507.83 862.709 517.203C861.239 521.889 860.088 525.886 859.307 529.081C858.53 532.261 858.106 534.689 858.116 536.213L858.117 536.322L858.164 536.422C858.844 537.865 859.523 539.633 860.464 541.044C861.422 542.482 862.716 543.655 864.685 543.871C871.361 544.601 880.646 543.137 891.106 540.417C901.582 537.693 913.293 533.693 924.846 529.31C947.952 520.545 970.47 510.229 981.262 505.48L981.589 505.337L981.559 504.982L981.502 504.278C976.606 430.096 1001.36 357 1050.33 301.063L1050.33 301.062C1103.53 240.019 1169.2 207.162 1249.53 201.716ZM762.692 317.083C753.26 313.962 742.889 313.497 727.528 314.398L727.492 314.4L727.458 314.407C691.442 321.712 660.072 343.1 635.14 370.308C610.208 397.517 591.69 430.574 581.381 461.274C571.082 491.946 568.941 520.38 576.921 538.282C580.922 547.26 587.478 553.601 596.814 556.208C606.129 558.809 618.141 557.673 633.039 551.861L633.05 551.856L633.063 551.851C659.912 539.723 687.361 518.654 710.644 493.648C733.563 469.033 752.472 440.576 762.797 413.028L763.283 411.717C772.338 386.955 781.819 360.132 792.252 336.135L792.402 335.79L792.113 335.551C780.57 325.964 772.124 320.203 762.692 317.083Z" fill="black" stroke="black"/>
<path d="M328.237 207.958C361.553 220.528 414.494 249.081 449.94 265.32L349.25 526.408L303.269 647.09C269.23 736.167 250.975 782.831 184.646 852.734C165.212 846.466 145.797 840.102 126.419 833.636C83.9371 820.175 41.7784 805.673 0 790.143C12.6267 757.294 26.4514 723.908 39.4585 691.078C58.1893 698.264 107.403 717.533 125.849 709.242C135.775 704.775 152.091 671.887 156.465 661.211C179.36 605.45 200.582 547.183 221.538 490.631C256.528 396.191 292.087 301.964 328.237 207.958Z" fill="black"/>
<path d="M401.773 1.18532C448.514 -6.64362 492.67 25.142 500.086 71.9502C507.483 118.757 475.308 162.626 428.433 169.614C382.148 176.515 338.962 144.827 331.641 98.6103C324.339 52.3933 355.621 8.91556 401.773 1.18532Z" fill="black"/>
</svg>
